#!OML:ASF E:\CV Data\Top Level 1\Subject 1\Session 1\player.ASF
:FULLY-SPECIFIED
:DEGREES
1281
root -3.15498 17.3392 2.4618 4.15205 -14.3803 -5.18083
lowerback 5.64996 0.131938 0.607109
upperback -3.86951 0.453202 3.49977
thorax -7.25603 0.287927 3.28444
lowerneck -18.2557 -7.70346 -12.4929
upperneck 26.9752 -9.62966 7.88109
head 13.1113 -4.57949 3.49246
rclavicle 1.63997e-015 -1.51076e-014
rhumerus 331.746 347.129 644.796
rradius 22.6726
rwrist -8.29359
rhand -21.7457 5.81889
rfingers 7.12502
rthumb 4.65433 -24.11
lclavicle 1.63997e-015 -1.51076e-014
lhumerus -35.7448 13.2921 78.4097
lradius 26.1094
lwrist -11.4005
lhand -10.4662 9.79058
lfingers 7.12502
lthumb 15.5346 39.1866
rfemur -16.9305 7.68532 24.0016
rtibia 38.5148
rfoot -23.1639 -6.4986
rtoes 3.90492
lfemur -12.7791 3.3076 -16.5058
ltibia 34.9687
lfoot -19.5759 7.63016
ltoes 2.17883
1282
root -3.15304 17.339 2.46657 4.13041 -14.4094 -5.16876
lowerback 5.55929 0.158708 0.589039
upperback -3.92608 0.484481 3.46258
thorax -7.26516 0.303572 3.25183
lowerneck -18.1452 -7.76947 -12.568
upperneck 27.0782 -9.71469 7.84254
head 13.1444 -4.63359 3.47776
rclavicle -9.93923e-017 2.0276e-014
rhumerus 332.539 348.107 643.995
rradius 23.2329
rwrist -9.14008
rhand -21.9638 6.02768
rfingers 7.12502
rthumb 4.44371 -23.9057
lclavicle -9.93923e-017 2.0276e-014
lhumerus -35.7708 13.0727 78.6481
lradius 26.0763
lwrist -11.6824
lhand -10.1822 9.48074
lfingers 7.12502
lthumb 15.8081 38.8553
rfemur -16.8945 7.68912 23.9752
rtibia 38.5167
rfoot -23.1802 -6.4405
rtoes 3.9564
lfemur -12.7252 3.32077 -16.5325
ltibia 34.9457
lfoot -19.5734 7.66181
ltoes 2.17137
1283
root -3.15117 17.3389 2.47172 4.10981 -14.43 -5.15518
lowerback 5.46397 0.185306 0.572749
upperback -3.98303 0.515528 3.4243
thorax -7.27193 0.318965 3.21715
lowerneck -18.0031 -7.84357 -12.655
upperneck 27.1573 -9.81607 7.82173
head 13.1652 -4.69463 3.46931
rclavicle -1.963e-014 -5.96354e-015
rhumerus 333.301 349.064 643.243
rradius 23.7916
rwrist -9.92306
rhand -22.2068 6.16971
rfingers 7.12502
rthumb 4.20908 -23.7684
lclavicle -1.963e-014 -5.96354e-015
lhumerus -35.8023 12.8296 78.8999
lradius 26.0734
lwrist -11.9526
lhand -9.8896 9.19876
lfingers 7.12502
lthumb 16.09 38.5508
rfemur -16.8599 7.69554 23.9481
rtibia 38.5221
rfoot -23.199 -6.39404
rtoes 4.00061
lfemur -12.6722 3.3292 -16.5605
ltibia 34.9209
lfoot -19.5709 7.69001
ltoes 2.16625
1284
root -3.14939 17.3388 2.47718 4.08863 -14.4387 -5.13662
lowerback 5.3639 0.212093 0.555893
upperback -4.03563 0.546301 3.38203
thorax -7.27118 0.334063 3.17854
lowerneck -17.8426 -7.92927 -12.7493
upperneck 27.2162 -9.93884 7.81777
head 13.1782 -4.76405 3.46482
rclavicle 7.05686e-015 4.57205e-014
rhumerus 334.038 349.993 642.535
rradius 24.3486
rwrist -10.6426
rhand -22.4699 6.27544
rfingers 7.12502
rthumb 3.955 -23.6676
lclavicle 7.05686e-015 4.57205e-014
lhumerus -35.8279 12.5631 79.1632
lradius 26.0985
lwrist -12.2059
lhand -9.5781 8.95848
lfingers 7.12502
lthumb 16.3899 38.286
rfemur -16.8249 7.70346 23.9162
rtibia 38.5301
rfoot -23.2214 -6.3556
rtoes 4.06152
lfemur -12.6192 3.32926 -16.5934
ltibia 34.8936
lfoot -19.5684 7.71643
ltoes 2.15824
1285
root -3.14759 17.3387 2.48306 4.06573 -14.4369 -5.11488
lowerback 5.25906 0.235714 0.54072
upperback -4.08551 0.572728 3.33873
thorax -7.26443 0.346848 3.13841
lowerneck -17.6624 -8.02199 -12.8564
upperneck 27.2572 -10.0757 7.83284
head 13.1837 -4.83905 3.46758
rclavicle 6.78353e-015 -7.55382e-015
rhumerus 334.747 350.9 641.87
rradius 24.9038
rwrist -11.3022
rhand -22.7053 6.39155
rfingers 7.12502
rthumb 3.72769 -23.5556
lclavicle 6.78353e-015 -7.55382e-015
lhumerus -35.8557 12.2855 79.4335
lradius 26.1481
lwrist -12.4328
lhand -9.25903 8.75875
lfingers 7.12502
lthumb 16.6971 38.0607
rfemur -16.7874 7.70619 23.8817
rtibia 38.5393
rfoot -23.2475 -6.32179
rtoes 4.127
lfemur -12.5636 3.31542 -16.6306
ltibia 34.8642
lfoot -19.5654 7.74732
ltoes 2.14784
1286
root -3.1458 17.3386 2.48933 4.04198 -14.4207 -5.0903
lowerback 5.14804 0.253971 0.526347
upperback -4.13325 0.591832 3.29537
thorax -7.25138 0.355929 3.09863
lowerneck -17.4549 -8.12165 -12.9756
upperneck 27.2765 -10.2263 7.86308
head 13.1783 -4.92018 3.47615
rclavicle 3.77442e-014 0
rhumerus 335.43 351.793 641.241
rradius 25.4577
rwrist -11.9074
rhand -22.9215 6.51538
rfingers 7.12502
rthumb 3.51895 -23.4353
lclavicle 3.77442e-014 0
lhumerus -35.8885 12.0011 79.7072
lradius 26.2221
lwrist -12.6271
lhand -8.91845 8.6156
lfingers 7.12502
lthumb 17.0249 37.8896
rfemur -16.748 7.69586 23.845
rtibia 38.5489
rfoot -23.2768 -6.29153
rtoes 4.18923
lfemur -12.5077 3.28764 -16.6711
ltibia 34.8336
lfoot -19.563 7.77922
ltoes 2.14207
